<svg id="Layer_1" data-name="Layer 1" xmlns="http://www.w3.org/2000/svg" viewBox="0 0 400 400"><path d="M198,393.29133c-58.838,0-113.58192-27.372-154.172-76.969L39.5,310.94152l4.328-5.26384c40.59-49.714,95.334-76.969,154.172-76.969s113.58193,27.37194,154.17194,76.969L356.5,310.94152l-4.32806,5.26384C311.69889,365.91938,256.838,393.29133,198,393.29133ZM61.14022,310.94152C97.98708,353.28618,146.41439,376.564,198,376.564c51.70258,0,100.01292-23.27786,136.85978-65.62252C298.01292,268.59687,249.58562,245.319,198,245.319S97.98708,268.59686,61.14022,310.94152Z"/><path d="M198,319.24666c-58.838,0-113.58192-27.372-154.172-76.969L39.5,237.01383,43.828,231.75c40.59-49.714,95.334-76.969,154.172-76.969s113.58193,27.37194,154.17194,76.969L356.5,237.01383l-4.32806,5.26384C311.69889,291.99169,256.838,319.24666,198,319.24666ZM61.14022,237.01383C97.98708,279.35848,146.41439,302.63635,198,302.63635c51.70258,0,100.01292-23.27786,136.85978-65.62252C298.01292,194.66919,249.58562,171.39131,198,171.39131S97.98708,194.5522,61.14022,237.01383Z"/><path d="M198,245.319c-58.838,0-113.58192-27.37194-154.172-76.969L39.5,163.08616l4.328-5.26384c40.59-49.714,95.334-76.969,154.172-76.969s113.58193,27.372,154.17194,76.969L356.5,163.08616,352.17194,168.35C311.69889,217.947,256.838,245.319,198,245.319ZM61.14022,163.08616C97.98708,205.43081,146.41439,228.70866,198,228.70866c51.70258,0,100.01292-23.27785,136.85978-65.62252C298.01292,120.7415,249.58562,97.46363,198,97.46363,146.41439,97.34667,97.98708,120.62453,61.14022,163.08616Z"/><path d="M198,171.39131c-58.838,0-113.58192-27.37195-154.172-76.969L39.5,89.04151l4.328-5.26384c40.59-49.59705,95.334-76.969,154.172-76.969s113.58193,27.372,154.17194,76.969L356.5,89.04151l-4.32806,5.26383C311.69889,144.01937,256.838,171.39131,198,171.39131ZM61.14022,89.04151C97.98708,131.38615,146.41439,154.664,198,154.664c51.70258,0,100.01292-23.27786,136.85978-65.6225C298.01292,46.69686,249.58562,23.419,198,23.419S97.98708,46.69686,61.14022,89.04151Z"/></svg>